<svg xmlns="http://www.w3.org/2000/svg" viewBox="0 0 32 32">
	<style>
		.a { fill: #000000 }
		@media (prefers-color-scheme: dark) {
			.a { fill: #ffffff }
		}
	</style>
	<path d="M29.8,17.5a19.9,19.9,0,0,0,.7-4.8,3.1,3.1,0,0,0-5.2-2.1l-3.7,3.6a25.9,25.9,0,0,0,.2-7.8c-.3-2-2.9-2.6-4.4-1.8a7.1,7.1,0,0,0-1.4,1,2.5,2.5,0,0,0-1.6-.4c-4.7.1-9.5,5.2-13.1,7.7s-.1,7.5,3.1,5.3l3-2.3c-1,1.8-1.9,3.6-3,5.4s-.1,4.1,1.8,4.5,5.4-1.4,7.1-4.1a20.2,20.2,0,0,1-.7,2.3c-1.1,2.9,3,5,5.1,2.9l3.9-4.1c-.1.3-.1.6-.2.8-.8,2.8,3,5.3,5.1,3a14.1,14.1,0,0,1,4-3.7C33.1,21.6,32,18.3,29.8,17.5Z" fill="#fe0000"/>
	<path class="a" d="M20.2,13.7c-.8-.7-1.9-.5-2.8-.5s-2.7.1-4,0a1,1,0,0,0-1.1.4,1.5,1.5,0,0,0-.8,1.4,5.9,5.9,0,0,0,1.4,2.7l2.1,3c.6.9,1.5,1.5,2.6.9s1.3-1.8,1.6-2.7l1.2-2.7A2.1,2.1,0,0,0,20.2,13.7Z"/>
</svg>