<svg xmlns="http://www.w3.org/2000/svg">
  <symbol xmlns="http://www.w3.org/2000/svg" viewBox="0 0 32 32" id="settings">
    <title>General settings</title>
    <path d="M28.3 8.2a1.6 1.6 0 00-.7-.7 1.9 1.9 0 00-1.2.2l-2.2.7-1.6.4a1 1 0 01-.9-.1 1.1 1.1 0 01-.6-.7 55.4 55.4 0 00-1.7-5.8c0-.1-.1-.1-.2-.1h-4l-1 .2a2.7 2.7 0 00-.7 1.2l-1.6 4.6a1.1 1.1 0 01-.6.7h-1l-2-.7-2.7-1A.7.7 0 005 7c-.3 0-.5.3-.8.5L1 11.4c0 .1 0 .3.1.3a39.7 39.7 0 014.2 4l.7.8a1.4 1.4 0 01.3.9 1.1 1.1 0 01-.5.9l-3.4 2.3c-.2.2-.4.3-.4.5a.9.9 0 00.1.7L4 26.2a.1.1 0 00.1.1h.2L7 25.1l2.7-1.2h1a1.1 1.1 0 01.6.7l2.2 5.1a.3.3 0 00.1.2h5.9a2.4 2.4 0 00.3-.7 19.8 19.8 0 00.8-2.6l.6-2.1a1.3 1.3 0 011.4-.9c2 .4 4.2.6 6.2.8a.2.2 0 00.2-.2 20.7 20.7 0 011.5-3.4.2.2 0 000-.3l-2-1.5-1.7-1.3a1.4 1.4 0 01-.5-1 1.1 1.1 0 01.4-.9l4.2-3.4a.4.4 0 00.1-.3zM17.2 21.9H17c-.2 0-.3-.1-.4-.3a.5.5 0 01.2-.7 5.2 5.2 0 003-4.8 4.6 4.6 0 00-3.5-4.3 4.1 4.1 0 00-4.7 2.5 4.9 4.9 0 000 3.4 5.5 5.5 0 001.4 2.6 2.4 2.4 0 002.4.4.6.6 0 01.7.2.7.7 0 01-.2.7 3.3 3.3 0 01-3.5-.6 4.9 4.9 0 01-1.7-2.9 6.1 6.1 0 01-.1-4 5.2 5.2 0 015.9-3.2 5.6 5.6 0 014.3 5.2 6.3 6.3 0 01-3.6 5.8z" fill="none"></path>
    <path d="M16.5 10.9a5.2 5.2 0 00-5.9 3.2 6.1 6.1 0 00.1 4 4.9 4.9 0 001.7 2.9 3.3 3.3 0 003.5.6.7.7 0 00.2-.7.6.6 0 00-.7-.2 2.4 2.4 0 01-2.4-.4 5.5 5.5 0 01-1.4-2.5 4.9 4.9 0 010-3.4 4.1 4.1 0 014.7-2.5 4.6 4.6 0 013.5 4.3 5.2 5.2 0 01-3 4.8.5.5 0 00-.2.7c.1.2.2.3.4.3h.2a6.3 6.3 0 003.6-5.8 5.6 5.6 0 00-4.3-5.3z"></path>
    <path d="M29.1 7.6a2.7 2.7 0 00-1.1-1 3 3 0 00-1.9.1l-2.2.7-1.6.5h-.1c0-.1-.1-.1-.1-.2-.5-1.9-1.1-3.9-1.8-5.8a1.1 1.1 0 00-1-.8h-4.1a2.8 2.8 0 00-1.5.4 3.2 3.2 0 00-1.1 1.7l-1.7 4.6a.1.1 0 01-.1.1h-.1l-2-.7-2.7-1A2 2 0 004.9 6a1.9 1.9 0 00-1.4.9C2.4 8.1 1.3 9.5.2 10.8a1.2 1.2 0 00.3 1.7 49.3 49.3 0 014 3.9l.7.8a.1.1 0 01.1.1v.2l-3.5 2.3a3.6 3.6 0 00-.8.9 2.3 2.3 0 00.2 1.5l1.9 4.4a1.2 1.2 0 00.7.7h.9L7.4 26l2.8-1.1h.1c0 .1.1.1.1.2l2.1 5.1a1.2 1.2 0 001.1.8h5.5a1.3 1.3 0 00.8-.2 1.9 1.9 0 00.9-1.3c.3-.8.5-1.7.8-2.6s.4-1.5.6-2.1a.2.2 0 01.2-.2c2.1.4 4.3.6 6.4.8a1.4 1.4 0 001.2-.9 13 13 0 011.4-3.2 1.2 1.2 0 00-.3-1.6l-2-1.5-1.7-1.3a.3.3 0 01-.1-.2h.1l4.2-3.5a1.4 1.4 0 00.2-1.6zm1.8 4.8l-4.2 3.4a1.1 1.1 0 00-.4.9 1.4 1.4 0 00.5 1l1.7 1.3 2 1.5a.2.2 0 010 .3 20.7 20.7 0 00-1.5 3.4.2.2 0 01-.2.2c-2-.2-4.2-.4-6.2-.8a1.3 1.3 0 00-1.4.9l-.6 2.1a19.8 19.8 0 01-.8 2.6 2.4 2.4 0 01-.3.7h-5.9a.3.3 0 01-.1-.2l-2.2-5.1a1.1 1.1 0 00-.6-.7h-1L7 25.1l-2.7 1.2h-.2a.1.1 0 01-.1-.1l-1.9-4.4a.9.9 0 01-.1-.7c0-.2.2-.3.4-.5l3.4-2.3a1.1 1.1 0 00.5-.9 1.4 1.4 0 00-.3-.9l-.7-.8a39.7 39.7 0 00-4.2-4c-.1 0-.1-.2-.1-.3l3.2-3.9c.3-.2.5-.5.8-.5a.7.7 0 01.6.1l2.7 1 2 .7h1a1.1 1.1 0 00.6-.7l1.6-4.7a2.7 2.7 0 01.7-1.2l1-.2h4c.1 0 .2 0 .2.1A55.4 55.4 0 0121.1 8a1.1 1.1 0 00.6.7 1 1 0 00.9.1l1.6-.4 2.2-.7a1.9 1.9 0 011.2-.2 1.6 1.6 0 01.7.7l2.7 3.9a.4.4 0 01-.1.3z"></path>
  </symbol>
  <symbol xmlns="http://www.w3.org/2000/svg" viewBox="0 0 32 32" id="show-more">
    <path d="M31.3 8.1a1.5 1.5 0 00-2.1-.5 27.1 27.1 0 00-11 12.4A44.7 44.7 0 002.7 7.9a1.6 1.6 0 00-2.1.7 1.6 1.6 0 00.7 2.1A42.7 42.7 0 0117.5 24a1.4 1.4 0 001.2.6h.3a1.7 1.7 0 001.2-1 23.9 23.9 0 0110.6-13.4 1.5 1.5 0 00.5-2.1z"></path>
  </symbol>
  <symbol xmlns="http://www.w3.org/2000/svg" viewBox="0 0 32 32" id="shuffle">
    <title>Shuffle</title>
    <path d="M14.4 19.3a1.4 1.4 0 00-2 .3 10.7 10.7 0 01-10.6 4.2 1.3 1.3 0 00-1.7 1.1 1.4 1.4 0 001.1 1.7 10.7 10.7 0 002.5.3 13.5 13.5 0 0011-5.6 1.4 1.4 0 00-.3-2zM26.6 4.5a1.7 1.7 0 00-1 1.2v1.6a11.2 11.2 0 00-7.2 4.1 1.4 1.4 0 00.3 2l.9.3a1.4 1.4 0 001.1-.5 8 8 0 015-3l.3 2.1a1.5 1.5 0 001.4 1.1h.3a1.5 1.5 0 001.2-1.2l2.3-2.2a2.1 2.1 0 00.4-1.1 1.8 1.8 0 00-.4-1l-3.1-3.1a1.4 1.4 0 00-1.5-.3z"></path>
    <path d="M31.2 21.2l-2.9-2.7a1.6 1.6 0 00-1.6-.3 1.7 1.7 0 00-.9 1.4v1.9a6.6 6.6 0 01-4.6-1.9 20.9 20.9 0 01-2.2-2.8l-1.3-2A16.1 16.1 0 001.8 9a1.4 1.4 0 00.6 2.8 13.5 13.5 0 0113.1 4.8 14 14 0 011.2 1.8 15.7 15.7 0 002.6 3.3 9.4 9.4 0 006.6 2.7v1.8a1.4 1.4 0 001.4 1.4 1.4 1.4 0 001.2-.6l.3-.2 2.6-2.8a2.3 2.3 0 00.5-1.3 1.8 1.8 0 00-.7-1.5z"></path>
  </symbol>
  <symbol xmlns="http://www.w3.org/2000/svg" viewBox="0 0 100 25" id="site">
    <title>youtube-dl-web-viewer</title>
    <path d="M30.4 13.5a19.9 19.9 0 00.7-4.8 3.1 3.1 0 00-5.3-2.2L22 10.1a26.7 26.7 0 00.3-7.9C22 .1 19.3-.5 17.7.4a4.1 4.1 0 00-1.3 1 2.4 2.4 0 00-1.7-.4C9.9 1.1 5 6.3 1.4 8.9s-.2 7.6 3.1 5.3l3-2.3a58.6 58.6 0 01-3 5.5c-1 1.6-.2 4.2 1.8 4.5s5.5-1.4 7.3-4.1a22.5 22.5 0 01-.8 2.4c-1.1 2.9 3.2 5 5.2 3l4.1-4.2-.3.8c-.8 2.8 3.1 5.4 5.2 3s2.4-3 4.1-3.8 1.5-4.7-.7-5.5z" fill="#fe0000"></path>
    <path d="M29.2 5.2c-2.8-2.4-8.5-3.4-12.1-3.6A26 26 0 006.2 3.2a1.4 1.4 0 00-2.6.1c-3.2 6.9-5.4 15.4 3 19.3 4 1.8 8 1.4 12.3 1.4s8.2.8 11.4-1.4 2.4-14.4-1.1-17.4zm-1.3 14.7c-3 2.3-10.7 1.2-14.4 1s-8.3-1.2-9.6-5 .3-6.3 1.5-9.1h.4C10.2 5 14.7 4 19.6 5s7.6 2.3 9 6.1 1.3 7.2-.7 8.8z"></path>
    <path d="M20.6 9.6c-.8-.7-1.9-.5-2.9-.5h-4a1.5 1.5 0 00-1.2.5 1.3 1.3 0 00-.8 1.3 5.7 5.7 0 001.4 2.8l2.2 3.1c.6.9 1.5 1.5 2.6.9s1.3-1.8 1.7-2.8l1.2-2.7a2.2 2.2 0 00-.2-2.6z"></path>
    <path d="M59.4 13.4c-1.4-.5-1.5 3.3-.2 1l.3-1zm31.5-1.1c-.2-.1-.4-.4-.9-.1a1.3 1.3 0 00-.6.7zm6 0h-.2a26.6 26.6 0 00.3 2.8c.6-.4 1.5-.8 1.3-1.5a2.5 2.5 0 00-1.4-1.3z" fill="none"></path>
    <path d="M44.1 12.8c-.2 1.1-.4 2.4-1.7 2.4s-.9.2-1-.5a1.2 1.2 0 01-.3-1.2c.1-1-1.6-1-1.6 0S40 17 42 17.1a3.7 3.7 0 002.4-.9 10.4 10.4 0 01-.3 4c-.8 2.5-4.7 3.9-7.1 2.8a.9.9 0 00-.8 1.5 8.1 8.1 0 008.4-1.7 5.8 5.8 0 001.4-4q0-3-.3-6c-.2-.8-1.5-.8-1.6 0zm8.7-4.5c-.4.3-1.1.4-1.6.7l-1.7.6c.1-1.4.2-2.8.2-4.1a.8.8 0 10-1.6 0c-.1 3.1-1.1 7.3.2 10.3a3.2 3.2 0 005 1 .8.8 0 00-1.2-1.2c-1.7 1.7-2.6-1.6-2.6-2.6a8.5 8.5 0 010-1.6h.1l2.2-.9 1.9-.7a.9.9 0 00-.9-1.5zM58.1 5a5.4 5.4 0 00.3 2.5c.1.3.3.5.5.5a14 14 0 01.5 3.4v.3c-3.6-.9-3.8 6.1-.6 5.3s1.8-9.6 1-12.2a.9.9 0 00-1.7.2zm1.3 8.4h.1l-.3 1c-1.3 2.3-1.2-1.5.2-1zm9.7 2.8c-2.9 2.2-3.4-4.6-3.5-5.4S65 7 64.9 5s-1.7-1-1.7 0 .5 4.1.8 6.2a17.1 17.1 0 00.9 4.5c.9 1.9 3.1 3.4 5 1.9s0-2.1-.8-1.4zm6.9-4.6l-1.6.3a4.4 4.4 0 01-1.6.2.8.8 0 100 1.6h1.6l1.6-.3c.4-.1.8-.3.8-.8a1 1 0 00-.8-1zm8.8-.1a13.9 13.9 0 01-.6 1.9c-.1.3-.1.6-.2 1a1.7 1.7 0 00-1-.3l-.9.3v.2a.4.4 0 00-.1-.3l-1.1-1.5c-.7-.8-1.9.4-1.2 1.2a5.7 5.7 0 011.1 1.6c.2.4.2.7.5.9a.8.8 0 00.8.2c.5-.1.6-.4 1-.7v-.2h.2a1.5 1.5 0 01.6.5 1.1 1.1 0 001.2-.3 9.4 9.4 0 00.7-2.2 21.7 21.7 0 00.7-2.4c.1-1-1.6-.9-1.7.1zm8.2.9c.1-1.5-2.3-2.4-3.5-1.9s-2.3 2.5-1.7 3.9a5 5 0 004 2.7c1.1 0 1.1-1.7 0-1.6a3.6 3.6 0 01-1.8-1c1.3-.3 3-.9 3-2.1zm-3-.2c.5-.3.7 0 .9.1l-1.5.6a1.3 1.3 0 01.6-.7zm9.9 1a3.7 3.7 0 00-3-2.5h-.3c-.1-1.6 0-3.1-.1-4.6a.8.8 0 10-1.6 0c0 3.3-.2 7.1.7 10.3a.9.9 0 001.4.4.7.7 0 00.6-.1c1.2-.8 2.9-1.7 2.3-3.5zM97 15.1a26.6 26.6 0 01-.3-2.8h.2a2.5 2.5 0 011.4 1.3c.2.7-.7 1.1-1.3 1.5z"></path>
  </symbol>
  <symbol xmlns="http://www.w3.org/2000/svg" viewBox="0 0 100 16" id="stars-empty">
    <path d="M15.2 7.5a40.2 40.2 0 01-4.9.2c1.3-1.7 2.3-3.5 3.4-5.2s-.8-1.7-1.4-.8-2.4 4.1-3.9 5.9c-.5-2.2-.9-4.3-1.2-6.5s-1.7-1-1.6 0a43.4 43.4 0 00.9 5.2 14.9 14.9 0 00-4.4-2.8.6.6 0 00-.6 0 .8.8 0 00.3 1.6 14.9 14.9 0 013.7 2.3 36.9 36.9 0 00-4.7.1.8.8 0 000 1.6 40.1 40.1 0 016 0 42.6 42.6 0 00-4.3 4.2c-.7.7.5 1.9 1.1 1.1a42.7 42.7 0 013.8-3.6l.9 4.3c.2 1 1.7.6 1.5-.4a34.3 34.3 0 00-.9-4.4c1.7 1.3 3.6 2.1 5.3 3.4s1.6-.8.8-1.4-3.1-2-4.6-3a38.5 38.5 0 004.8-.2c1-.1 1-1.7 0-1.6zm21.2 2.6L30.5 9c1.9-.9 3.8-1.8 5.7-2.9s.1-2.1-.9-1.5-4 2.1-6.1 3.1c0-.1 0-.1-.1-.1a51.9 51.9 0 001.7-6.5c.1-1.1-1.5-1.6-1.7-.5a47.7 47.7 0 01-1.3 5.1 25.2 25.2 0 01-3-4.8c-.4-1.1-2.1-.6-1.7.4s2.8 4.4 4.1 6.5C25.5 7 23.9 6 22.3 5.3s-2 1-.9 1.5l4.5 2.3-3.1 1.5c-1 .5-.1 2 .9 1.5l2.8-1.4c-.2 1.1-.4 2.1-.7 3.2a.9.9 0 001.7.5l.9-4.2h.5a58 58 0 013.4 5.2c.5 1 2 .1 1.5-.9a29.2 29.2 0 00-2.4-3.5l4.5.8c1.1.2 1.6-1.5.5-1.7zm21-2a20.8 20.8 0 00-5.5-1.2 12.9 12.9 0 003.6-3.8c.5-1-.9-1.8-1.4-.8a14.5 14.5 0 01-2.4 2.6 21.4 21.4 0 00.6-3.5c.2-1.1-1.5-1.1-1.6 0a29.8 29.8 0 01-.9 4.3l-3.7-3.4A.8.8 0 1045 3.4l3.5 3.3-5.5-.4c-1-.2-1.4 1.4-.4 1.5a45.3 45.3 0 005.3.5l-4 3.7c-.8.7.3 1.9 1.1 1.2l3.5-3.2c-.4 1.4-.6 2.9-.9 4.4a.8.8 0 001.6.4c.5-2 .7-4 1.4-6a23.8 23.8 0 013.5 5c.4 1 1.9.1 1.4-.8a18 18 0 00-2.9-4.3 23.3 23.3 0 014.4 1c.9.3 1.4-1.3.4-1.6zm17.9.7a12 12 0 002.4-.4.8.8 0 00-.4-1.5l-2.8.3c1.2-1.3 2.3-2.7 3.6-4s-.5-1.9-1.2-1.2-3 3.5-4.6 5.1l-.7-.3a52.5 52.5 0 00-.3-5.6c-.1-1.1-1.8-1.1-1.6 0l.3 4.9a20.3 20.3 0 01-5-3.2c-.7-.7-1.9.5-1.1 1.2a18.8 18.8 0 004.8 3.1l-4.9.5c-1 .2-1 1.8 0 1.7a44.8 44.8 0 016.3-.6V9a19.8 19.8 0 00-4.7 4.9c-.6.9.8 1.7 1.4.8a14.2 14.2 0 013.3-3.6c.1 1.2.1 2.5.2 3.7s1.7 1.1 1.6 0-.1-3.3-.2-5l.8-.7a22 22 0 015.1 4 .8.8 0 101.1-1.1 34.7 34.7 0 00-3.4-3.2zm24.1-.6a23.2 23.2 0 00-4.6-.6l4.1-4c.8-.8-.5-2-1.3-1.2s-3.4 3.1-5 4.9c-.2-2.2-.3-4.5-.6-6.7s-1.9-.7-1.7.4.4 3.2.5 4.9A21.3 21.3 0 0187.3 2c-.7-.9-2.2-.1-1.6.9a25 25 0 003.5 3.8L84.8 6c-1.1-.1-1.1 1.7 0 1.8s4.1.7 6.1 1v.3a13.4 13.4 0 01-5.5 3.7c-1.1.4-.6 2.1.4 1.7a13.7 13.7 0 005.3-3.2 25.4 25.4 0 01.1 3.9c-.2 1.1 1.6 1.1 1.7 0a24.5 24.5 0 00-.1-5.4 19.7 19.7 0 014.6 5.4.9.9 0 101.5-.9 19.6 19.6 0 00-4.1-5c1.4.2 2.8.3 4.1.6a.9.9 0 00.5-1.7z"></path>
  </symbol>
  <symbol xmlns="http://www.w3.org/2000/svg" viewBox="0 0 100 16" id="stars-filled">
    <title>Rating</title>
    <path d="M15.2 8.5a39.1 39.1 0 01-4.8-.5c1.4-1.5 2.6-3.1 4-4.7s-.5-1.9-1.2-1.1a61.7 61.7 0 01-4.8 5.4c-.1-2.2-.3-4.4-.3-6.6a.8.8 0 10-1.6 0c0 1.7.1 3.4.2 5.1a14.5 14.5 0 00-3.8-3.3h-.6a.8.8 0 00-.1 1.6 11.1 11.1 0 013.3 2.8 24.2 24.2 0 00-4.7-.6c-1-.1-1 1.5 0 1.6a38.1 38.1 0 015.9.8 44.9 44.9 0 00-4.9 3.7c-.8.7.4 1.8 1.1 1.1a41.3 41.3 0 014.2-3.1l.3 4.3c.1 1.1 1.7 1.1 1.6 0l-.3-4.5c1.5 1.4 3.2 2.5 4.7 3.9a.8.8 0 001.2-1.1c-1.4-1.3-2.9-2.5-4.4-3.7a27.3 27.3 0 005 .5.8.8 0 000-1.6zm21 1.2c-1.8-.2-3.9-.3-5.7-.6a57.4 57.4 0 005.3-3.2c1-.6.1-2.1-.8-1.5a49.9 49.9 0 01-5.9 3.4H29a38.2 38.2 0 001.2-6.6c.1-1.1-1.6-1.1-1.7 0a27.8 27.8 0 01-.8 4.8 18.7 18.7 0 01-3.4-4.7c-.5-1-2-.1-1.5.9s2.9 4 4.4 5.9L22.1 6c-1.1-.4-1.5 1.3-.5 1.7s2.9 1.2 4.4 1.8l-2.9 1.7a.9.9 0 00.9 1.5l2.7-1.6c-.1 1-.3 2-.4 3.1s1.4 1.5 1.6.4.4-2.8.7-4.2h.4a55.8 55.8 0 013.7 4.8.8.8 0 101.4-.8 21.8 21.8 0 00-2.6-3.6l4.7.5c1.1.3 1.1-1.5 0-1.6zm21.2-2.6a21.9 21.9 0 00-5.7-.4 13.1 13.1 0 003.1-4.4c.3-1-1.2-1.4-1.6-.4a8.3 8.3 0 01-1.8 2.5v.2c.1-1.1.1-2.2.1-3.3a.8.8 0 10-1.6 0 34.2 34.2 0 01-.4 4.5c-1.3-1.1-2.8-2-4.1-3s-1.7.8-.8 1.4l3.8 2.7a50.7 50.7 0 01-5.5.3c-1 0-1 1.7 0 1.7l5.1-.3-3.3 4.1c-.7.8.5 2 1.1 1.2l3.1-3.8c-.2 1.6-.1 3.1-.3 4.6s1.5 1.1 1.6 0a56.1 56.1 0 01.6-5.9 16.8 16.8 0 014.1 4.3c.5.8 1.9 0 1.4-.9a21.9 21.9 0 00-3.6-3.9 21.7 21.7 0 014.4.3.8.8 0 00.3-1.5zm20.2-4.4l-5.2 4.6-.6-.4a56.3 56.3 0 00.3-5.8.8.8 0 10-1.6 0c0 1.6-.1 3.2-.2 4.8a18.3 18.3 0 01-4.7-3.7c-.7-.7-1.9.4-1.2 1.2A22.2 22.2 0 0068.9 7h-5.1a.8.8 0 000 1.6h6.3v.2a19.5 19.5 0 00-5.3 4.5c-.7.8.7 1.7 1.4.8a14.2 14.2 0 013.7-3.1l-.3 3.9a.9.9 0 001.7 0l.3-5 .9-.6a21.8 21.8 0 014.6 4.5c.6.8 2 0 1.4-.9a34.7 34.7 0 00-3.1-3.6h2.2c1.1-.2 1.1-1.8 0-1.7a10.1 10.1 0 01-3 .1C76 6.5 77.3 5.2 78.8 4s-.4-2-1.2-1.3zm21.8 4.8a38.5 38.5 0 00-4.8-.2l.5-.6c1-1.3 2.1-2.4 3.2-3.6s-.5-2.1-1.2-1.2-3.1 3.3-4.5 5.2h-.1c-.3-2.1-.6-4.3-1.1-6.4a.9.9 0 00-1.7.5c.4 1.5.6 3.1.9 4.7a22.2 22.2 0 01-3.9-3.6c-.7-.8-2 .4-1.2 1.3a19.8 19.8 0 003.7 3.3l-4.4-.3a.9.9 0 000 1.8c2.1 0 4.2.3 6.2.5v.2c-1.5 1.7-3.2 3.5-5.1 4.2s-.7 2 .4 1.6a13.3 13.3 0 005-3.6 16.9 16.9 0 01.4 3.8c0 1.1 1.7 1.1 1.8 0a34.5 34.5 0 00-.7-5.5 23.3 23.3 0 015 4.9c.7 1 2.2.1 1.5-.8A20.1 20.1 0 0094.9 9a26.8 26.8 0 014 .2c1.1.2 1.6-1.5.5-1.7z"></path>
  </symbol>
  <symbol xmlns="http://www.w3.org/2000/svg" viewBox="0 0 32 32" id="user">
    <title>My account</title>
    <path d="M12.5 10a4.6 4.6 0 004.9 1.5c1.8-.7 4-2 3.8-4.1a4.3 4.3 0 00-1.9-2.8 6.3 6.3 0 00-3.4-1.3h-.1a4.2 4.2 0 00-3.7 2.3 4.4 4.4 0 00.4 4.4z" fill="none"></path>
    <path d="M13.9 15.6c-2 .7-3.7 2.3-5.4 4.8a19 19 0 00-3.4 8.7.4.4 0 00.4.6h.1c.2 0 .4-.2.5-.5a17.2 17.2 0 013.2-8.3c1.6-2.3 3.2-3.8 5-4.4s6.6.2 8.9 2.9a14.2 14.2 0 012.7 9.6.5.5 0 00.5.5.4.4 0 00.5-.4c.1-2.9-.3-7.1-3-10.3s-6.7-4.4-10-3.2zm2.1-2.9a4.7 4.7 0 001.7-.3c3.1-1.1 4.7-3 4.5-5.1a5.1 5.1 0 00-2.3-3.5A7.1 7.1 0 0016 2.3a5.5 5.5 0 00-4.8 2.8 5.2 5.2 0 00.5 5.5 5.6 5.6 0 004.3 2.1zm-3.9-7.1a4.2 4.2 0 013.7-2.3h.1a6.3 6.3 0 013.4 1.3 4.3 4.3 0 011.9 2.8c.2 2.1-2 3.4-3.8 4.1a4.6 4.6 0 01-4.9-1.5 4.4 4.4 0 01-.4-4.4z"></path>
  </symbol>
  <symbol xmlns="http://www.w3.org/2000/svg" viewBox="0 0 32 32" id="users">
    <title>User settings</title>
    <path d="M31.3 22.1a11 11 0 00-3.7-5.7 9.6 9.6 0 00-8.3-1.1 12.1 12.1 0 00-6.3 5.6 16.4 16.4 0 00-1.9 8.1.5.5 0 00.5.5.5.5 0 00.5-.5 15.9 15.9 0 011.8-7.7 10.6 10.6 0 015.7-5 8.3 8.3 0 017.4.9 9.7 9.7 0 013.4 5.2 27.8 27.8 0 01.6 6.4.5.5 0 00.5.5.5.5 0 00.5-.5 25.5 25.5 0 00-.7-6.7zm-19.1-2.8c.2.3.5.4.7.2s.3-.4.2-.7A6.3 6.3 0 007.9 16c-2.7.1-5.2 2.1-6.5 5S.1 26.6 0 29.2a.5.5 0 00.5.5.5.5 0 00.5-.5 21 21 0 011.3-7.8c.9-2.1 3-4.3 5.6-4.4a5.1 5.1 0 014.3 2.3zM7.5 14h.1a.5.5 0 00.5-.4c.1-.2-.1-.5-.4-.6a5 5 0 01-3-1.4 3.8 3.8 0 01-1.2-3.3 4 4 0 012-2.5 4.6 4.6 0 013.9-.6 4.3 4.3 0 012.5 3.4c.1 1.6-.8 3.2-2 3.4s-.4.3-.4.6a.5.5 0 00.6.4c1.7-.3 3-2.4 2.8-4.5a5.1 5.1 0 00-3.2-4.2 5.3 5.3 0 00-4.8.7 4.9 4.9 0 00-2.3 3.2A4.4 4.4 0 004 12.3 6.1 6.1 0 007.5 14zm14.5-.7h.1a.7.7 0 00.5-.4.6.6 0 00-.5-.6 3.8 3.8 0 01-3-1.5 5.3 5.3 0 01-1-2.9 4.8 4.8 0 011.1-3.2 4.3 4.3 0 013.5-1.4 5.3 5.3 0 012.6 1.3c1.4 1.3 2.1 2.8 1.8 4.2a3.9 3.9 0 01-3.7 2.7.5.5 0 00-.5.4.5.5 0 00.4.6A4.9 4.9 0 0028.1 9a5.7 5.7 0 00-2.2-5.1 5.8 5.8 0 00-3.1-1.6A5 5 0 0018.5 4a5.8 5.8 0 00-1.4 3.9 6.4 6.4 0 001.2 3.5 5 5 0 003.7 1.9z"></path>
  </symbol>
  <symbol xmlns="http://www.w3.org/2000/svg" viewBox="0 0 32 32" id="warn">
    <path d="M29.5 21.3c-.1-.8-.1-1.6-.2-2.4a2.7 2.7 0 00-3-2.2c.4-1.2.8-2.5 1.3-3.7 1.2-3-2.1-6.6-4.6-3.8l-2.2 2.7L24 3.8c1.2-3.1-3-4.9-4.9-3s-5.4 7.7-8 11.4A160.1 160.1 0 01.8 25c-2.6 2.9 1.6 7.3 4.1 4.4s3.4-3.9 5-5.9c-.3.9-.7 1.9-1.1 2.9-1.2 2.9 3 5.2 4.9 3l4.6-5.4c-.3 1.4-.5 2.8-.7 4.2-.6 3.9 4.3 5.4 5.6 1.6l.9-2a2.7 2.7 0 003.5.6l2.9-1.4c2.7-1.4 1.3-5.1-1-5.7z" fill="#fc3"></path>
    <path d="M28 18.3c-2.4-4.1-5-8.3-7.8-12.2-.6-.9-1.3-1.8-2.1-1.9s-1.7.3-3 1.5A51.3 51.3 0 002.9 24.8c.4 0 .6.3.8.6a4.3 4.3 0 003.1 2.3 18.5 18.5 0 004.7 0l12.7-1.5c1.9-.2 4.1-.5 5-2a3.7 3.7 0 00.2-2.8 16.6 16.6 0 00-1.4-3.1zM15.6 8.8a1.5 1.5 0 011.5-1.4 1.4 1.4 0 011.4 1.5l-.3 9.1a1.4 1.4 0 01-1.4 1.4h-.1a1.5 1.5 0 01-1.4-1.5zm2.7 14.9a2.1 2.1 0 01-1.7.8h-.3l-.5-.2h-.2a1 1 0 01-.9-1 2.1 2.1 0 011.1-1.9 2 2 0 012.2-.2 1 1 0 01.5.4 2.4 2.4 0 01-.2 2.1z" fill="none"></path>
    <path d="M31.3 20.9a15.9 15.9 0 00-1.6-3.6C27.2 13.1 24.6 9 21.8 5a5.5 5.5 0 00-3.3-2.7c-1.9-.4-3.5.9-4.7 2A53 53 0 00.5 25.8a1 1 0 00.7 1.2c.3.2.7 0 1-.2a6.5 6.5 0 004.2 2.8l2.3.2 3-.2 12.7-1.4c1.8-.2 5-.6 6.4-3a5.7 5.7 0 00.5-4.3zm-2.1 3.3c-.9 1.5-3.1 1.8-5 2l-12.7 1.5a18.5 18.5 0 01-4.7 0 4.3 4.3 0 01-3.1-2.3c-.2-.3-.4-.6-.8-.6A51.3 51.3 0 0115.1 5.7c1.3-1.2 2.2-1.7 3-1.5s1.5 1 2.1 1.9C23 10 25.6 14.2 28 18.3a16.6 16.6 0 011.4 3.1 3.7 3.7 0 01-.2 2.8z"></path>
    <path d="M16.7 19.4h.1a1.4 1.4 0 001.4-1.4l.3-9.1a1.4 1.4 0 00-1.4-1.5 1.5 1.5 0 00-1.5 1.4l-.3 9.1a1.5 1.5 0 001.4 1.5zm1.3 1.7a2 2 0 00-2.2.2 2.1 2.1 0 00-1.1 1.9 1 1 0 00.9 1h.2l.5.2h.3a2.1 2.1 0 001.7-.8 2.4 2.4 0 00.2-2.2 1 1 0 00-.5-.3z"></path>
  </symbol>
  <symbol xmlns="http://www.w3.org/2000/svg" viewBox="0 0 32 32" id="asc">
    <title>Sort descending</title>
    <path d="M23.4 4.3a19.6 19.6 0 00-1.3 2.5l2.4-.2-1.1-2.3z" fill="none"></path>
    <path d="M2.6 24.8A7.3 7.3 0 016 27.4a1.8 1.8 0 00.6.9 1.5 1.5 0 001.2.7h.1a1.5 1.5 0 001.2-.7l3.3-5a1.8 1.8 0 00.1-1.6 1.3 1.3 0 00-1.4-.7h-2c.1-5.6.4-11.1.8-16.6a1.4 1.4 0 00-1.3-1.5A1.4 1.4 0 007 4.3c-.5 5.6-.8 11.3-.9 16.9H3.5a1.9 1.9 0 00-1.4 1l-.3.6a1.5 1.5 0 00.8 2zM23.8.9a3.1 3.1 0 00-3 1.8 31.6 31.6 0 00-3.6 9.4 1.6 1.6 0 001.2 1.8h.3a1.4 1.4 0 001.4-1.2 22.9 22.9 0 01.8-2.8l4.8-.4h.2l1.6 3.4a1.6 1.6 0 002 .7 1.6 1.6 0 00.7-2L26.1 3A3.3 3.3 0 0023.8.9zm-1.7 5.9a19.6 19.6 0 011.3-2.5l1.1 2.3zM17.7 29a2.3 2.3 0 002.1 2.1h.3a5.8 5.8 0 001.4-.3 17 17 0 017.1-.9 1.5 1.5 0 00.2-3 20.6 20.6 0 00-6.5.5l4.6-4.9a7 7 0 001.1-1.8 2.6 2.6 0 00-1.4-3 3 3 0 00-1.2-.2l-7.5.3a1.5 1.5 0 00-1.5 1.5 1.6 1.6 0 001.6 1.5l6.5-.2-6 6.5a2.4 2.4 0 00-.8 1.9z"></path>
  </symbol>
  <symbol xmlns="http://www.w3.org/2000/svg" viewBox="0 0 32 32" id="autoplay">
    <title>Autoplay</title>
    <path d="M10.6 26.5a11.8 11.8 0 01-4.8-9.6 9.1 9.1 0 011.7-5.4 10 10 0 015.8-3.1l.2 3.2a1.4 1.4 0 00.2.7v.2a1.6 1.6 0 001.3.8l.7-.2 5.9-3.4a1.6 1.6 0 00.7-1.2 1.5 1.5 0 00-.5-1.2c-1.6-1.4-2.8-2.7-4.3-4.2l-2-2.2a1.8 1.8 0 00-1.7-.3 1.6 1.6 0 00-.9 1.5l.2 3.3a13.3 13.3 0 00-7.9 4.2 12.5 12.5 0 00-2.4 7.3 15.1 15.1 0 006 12 13.6 13.6 0 008 2.6 12.9 12.9 0 005.4-1.2 12.2 12.2 0 006.9-11.5 1.5 1.5 0 00-1.5-1.4 1.6 1.6 0 00-1.5 1.6 9.3 9.3 0 01-5.2 8.6 10.3 10.3 0 01-10.3-1.1z"></path>
  </symbol>
  <symbol xmlns="http://www.w3.org/2000/svg" viewBox="0 0 64 27" id="bongo">
    <path d="M14.2 9.6c.1-.1 0-.1 0 0zm1.3 1.4z" fill="none"></path>
    <path d="M48.4 16c0-3 .3-6-.4-8.9a4.7 4.7 0 00-2.4 1.3.5.5 0 01-.8 0 23.1 23.1 0 00-9.5-4.1c-.7-.2-1.6 0-2.2-.5s-1.5-1.9-2.6-2.4-.5-.4-1.5.2a9.5 9.5 0 00-2.1 1.9c-.3.3-.3.5-.8.7s-1.7.2-2.5.7a10.5 10.5 0 00-2.7 2 21.6 21.6 0 00-2.5 2.7l.2.2a.5.5 0 01-.9.6l-.2.2c-.4.5-1.1-.2-.7-.7l.3-.4c-.9-1.2-2.4-2.3-3.3-.4a8.1 8.1 0 00-.5 3.5l3.7 1c2.5.8 4.9 1.8 7.4 2.4a84.2 84.2 0 018.6 2.4l3.7 1.6.6.2a17.7 17.7 0 01-.2-3.2 3.8 3.8 0 011.2-2.9c2.4-2 4 1.1 5.4 2.6s-.3 1.2-.7.7-2.4-4-4.1-2.4-.7 1.7-.7 2.7a5.3 5.3 0 00.4 2.8l2.8.4c3 .4 6 .7 9 1.3l.8.2c-.6-2.1-2.9-4.2-2.8-6.4zM14.8 8.7l.2-.2a.4.4 0 01.4.4v.2a.3.3 0 11-.5.1c-.1-.1-.2-.3-.1-.5zm-.6 1.4c-.4-.1-.7-.7-.2-.9h.4v.3c.1.4 0 .7-.2.6zm2 1.2a.4.4 0 01-.4.2h-.1c0 .1-.2.1-.3.1s-.9-1-.3-1.4a.7.7 0 011.1 1.1zm0-1.7c-.1.2-.5.2-.5-.1a.5.5 0 01.4-.6.4.4 0 01.4.4.3.3 0 01-.3.3zm8.6 2.7c-.5 0-.9-.1-1.1-.6a.8.8 0 01.1-1 .9.9 0 011.1-.2 1 1 0 01.5 1c0 .1-.1.2-.1.3s-.2.6-.5.5zm7.1 1.9a1.6 1.6 0 01-1.6.3l-.7-.4v-.2c-.6.3-1.3 0-1.7-.8s.6-1.1.9-.5.5.5.7.2a.5.5 0 01.8.1c.2.1.1.4.2.5a.8.8 0 00.8.1.5.5 0 11.6.7zm4.7 1.2a.5.5 0 01-.7.3c-.7.1-1.1-1-.5-1.5s.8-.4 1.1-.1.2.9.1 1.3zm2.3 1.5c-.3-.1-.6-.5-.4-.8s.6-.1.7.2 0 .1 0 .2 0 .4-.3.4zm.8-1.9c.4-.1.6.5.4.8H40c-.1.2-.3.3-.4.1s-.4-.8.1-.9zm.9 3.1a.7.7 0 01-.9 0 .8.8 0 01-.2-.8c.1-.4.4-.5.8-.5a.3.3 0 01.5.3c0 .4.1.8-.2 1zm.5-1.9c0 .1-.1.1-.2.1s-.4.2-.4-.1a.8.8 0 01.3-.9h.2c.4.3.3.6.1.9z" fill="none"></path>
    <path d="M63.6 26c-3.9-.7-7.5-2.3-11.4-3.3a.6.6 0 00.1-.4c-.8-2.8-2.8-4.6-2.7-7.7a25.5 25.5 0 00-.7-8.3.6.6 0 00-.7-.4c-1 .3-2.1 1.3-3 1.5-.2 0-.6-.3-.8-.4a18.7 18.7 0 00-3.1-1.7 33.9 33.9 0 00-6.1-2.1c-1.8-.3-2.5-1.4-3.9-2.5s-3.2.6-5.1 2.1-1.5.4-2.4.8a9.8 9.8 0 00-2.2 1.3 27.3 27.3 0 00-3.8 3.8c-.9-1.3-2.3-2.2-4-1.4a3.8 3.8 0 00-1.3 2.2 13.2 13.2 0 00-.2 2.8 93.8 93.8 0 00-11.8-2c-.7-.1-.7 1 0 1a80.8 80.8 0 0111.8 2v.4a.6.6 0 001.1 0 38.8 38.8 0 014.5 1.3c5.2 1.9 10.9 2.7 16.1 4.9a21.6 21.6 0 006.1 1.9c3.3.4 6.7.8 10 1.4s8.7 3 13.3 3.8c.6.1.9-.9.2-1zm-22.2-5.1l-2.8-.4a5.3 5.3 0 01-.4-2.8c0-1-.1-2 .7-2.7s3.1 1.4 4.1 2.4 1.1-.2.7-.7-3-4.6-5.4-2.6a3.8 3.8 0 00-1.2 2.9 17.7 17.7 0 00.2 3.2l-.6-.2-3.7-1.6a84.2 84.2 0 00-8.6-2.4c-2.5-.6-4.9-1.6-7.4-2.4l-3.7-1a8.1 8.1 0 01.5-3.5c.9-1.9 2.4-.8 3.3.4l-.3.4c-.4.5.3 1.2.7.7l.2-.2a.5.5 0 00.9-.6l-.2-.2a21.6 21.6 0 012.5-2.7 10.5 10.5 0 012.7-2c.8-.5 1.8-.4 2.5-.7s.5-.4.8-.7A9.5 9.5 0 0129 1.6c1-.6.2-.8 1.5-.2s1.6 1.8 2.6 2.4 1.5.3 2.2.5a23.1 23.1 0 019.5 4.1.5.5 0 00.8 0A4.7 4.7 0 0148 7.1c.7 2.9.4 5.9.4 8.9s2.2 4.3 2.8 6.4l-.8-.2c-3-.6-6-.9-9-1.3z"></path>
    <path d="M24.9 10.5a.9.9 0 00-1.1.2.8.8 0 00-.1 1c.2.5.6.6 1.1.6s.5-.2.5-.5.1-.2.1-.3a1 1 0 00-.5-1zm10.5 3.7c-.6.5-.2 1.6.5 1.5a.5.5 0 00.7-.3c.1-.4.3-.9-.1-1.3s-.8-.1-1.1.1zm-4.2-.7a.8.8 0 01-.8-.1c-.1-.1 0-.4-.2-.5a.5.5 0 00-.8-.1c-.2.3-.5.2-.7-.2s-1.2-.1-.9.5 1.1 1.1 1.7.8v.2l.7.4a1.6 1.6 0 001.6-.3.5.5 0 10-.6-.7z"></path>
    <path d="M15.1 10.4c-.6.4-.5 1.4.3 1.4s.3 0 .3-.1h.1a.4.4 0 00.4-.2.7.7 0 00-1.1-1.1zm-.7-.7v-.3H14c-.5.2-.2.8.2.9s.3-.4.2-.6zm.9-.5v-.3a.4.4 0 00-.4-.4l-.2.2c-.1.2 0 .4 0 .6a.3.3 0 10.6-.1zm.8-.3a.5.5 0 00-.4.6c0 .3.4.3.5.1a.3.3 0 00.3-.3.4.4 0 00-.4-.4zm24.2 7.9c-.4 0-.7.1-.8.5a.8.8 0 00.2.8.7.7 0 00.9 0c.3-.2.2-.6.2-1a.3.3 0 00-.5-.3zm-1.1-.3c0-.1.1-.1 0-.2s-.4-.6-.7-.2.1.7.4.8.4-.3.3-.4zm.8-.6h.1c.2-.3 0-.9-.4-.8s-.3.8-.1 1 .3 0 .4-.2zm1-.6h-.2a.8.8 0 00-.3.9c0 .3.4.4.4.1s.2 0 .2-.1.3-.6-.1-.9z" fill="#ffb3bd"></path>
  </symbol>
  <symbol xmlns="http://www.w3.org/2000/svg" viewBox="0 0 32 32" id="close">
    <title>Close</title>
    <path d="M21.5 12l6.2-6.1a1.3 1.3 0 000-2 1.4 1.4 0 00-2.1 0l-6.2 6-3.7 3.7c-2.7-3.2-5.5-6.4-8.4-9.3a1.5 1.5 0 00-2.1-.1 1.4 1.4 0 000 2.1c2.9 3 5.7 6.1 8.5 9.4a118.4 118.4 0 00-9.5 10.5 1.6 1.6 0 00.2 2.1 1.6 1.6 0 00.9.3 1.4 1.4 0 001.2-.6c2.8-3.5 5.9-6.9 9-10.1 2.3 2.8 4.4 5.7 6.5 8.6a1.4 1.4 0 001.2.6 1.3 1.3 0 00.8-.3 1.5 1.5 0 00.4-2c-2.2-3.1-4.4-6.1-6.8-9z"></path>
  </symbol>
  <symbol xmlns="http://www.w3.org/2000/svg" viewBox="0 0 32 32" id="desc">
    <title>Sort ascending</title>
    <path d="M24.3 4.2s-.3.1-.9.9l-1.2 1.7H25a3.6 3.6 0 00-.2-1.1c-.2-1.1-.4-1.4-.5-1.5z" fill="none"></path>
    <path d="M9.8 3.8A1.7 1.7 0 008.5 3a1.5 1.5 0 00-1.3.7 12.1 12.1 0 01-2.3 2.2 15.8 15.8 0 00-3.1 3.2 1.5 1.5 0 00.5 2 1.7 1.7 0 001.3.7h.2l2-.3-.7 16.6a1.5 1.5 0 001.4 1.6h.1a1.6 1.6 0 001.5-1.5l.7-17H11a1.7 1.7 0 001.3-.7 1.9 1.9 0 000-1.5zm17.9 1.3c-.2-1-.6-3.3-2.6-3.8s-2.5-.1-4.1 2a38.8 38.8 0 00-4.6 7.9 1.5 1.5 0 102.7 1.2l1.1-2.2a15.3 15.3 0 015.6-.4h.2a16.8 16.8 0 001.6 3.3 1.4 1.4 0 001.3.8l.7-.2a1.6 1.6 0 00.6-2.1 21.4 21.4 0 01-2.5-6.5zm-5.5 1.7l1.2-1.7c.6-.8.9-.9.9-.9s.3.4.5 1.5a3.6 3.6 0 01.2 1.1zm5.5 20.6a33.5 33.5 0 00-5.5.1 28.4 28.4 0 015-5.4 1.3 1.3 0 00.5-1.5 1.4 1.4 0 00-1.1-1.1l-6-1.1a1.2 1.2 0 00-.9-.3h-.5a1.5 1.5 0 00-.3 3l4.1.8a29.9 29.9 0 00-5.1 6.6 1.5 1.5 0 000 1.6 1.7 1.7 0 001.3.7h.2a44 44 0 018.1-.4 1.4 1.4 0 001.6-1.4 1.5 1.5 0 00-1.4-1.6z"></path>
  </symbol>
  <symbol xmlns="http://www.w3.org/2000/svg" viewBox="0 0 32 32" id="error">
    <path d="M29.1 14.6l1.9-2c2.7-2.7-.7-6.9-3.9-5.2l-.6.3.7-.6c2.6-2.5-.9-7.4-3.9-5.2l-2.2 1.6A3.2 3.2 0 0015.7.9 65.1 65.1 0 019.3 6c-.9.6-3.5 3-4.7 3.4s-4.5 1.3-3.5 3.9l.2.3c.5 1.3 1.5 2.5 3 2.4h.1a21.3 21.3 0 00-3.3 3.4 1.8 1.8 0 00-.5.7c-2.2 3.2 2.4 6.2 5 4l1.7-1.5-.6 1.5c-1.1 3.1 3.1 5.5 5.2 3.3-.8 2.6 2.1 6 4.6 4l5.5-4.2a3.2 3.2 0 005.9 1.1l1.2-1.4a3.1 3.1 0 00.5-3.7 24.7 24.7 0 011.9-3.6c1.4-2-.4-4.7-2.4-5z" fill="#f43"></path>
    <path d="M26.3 7.6A11.7 11.7 0 0018.7 3H17a13.2 13.2 0 00-9.3 4 15.8 15.8 0 00-4.1 11.2 11 11 0 002.6 7.2 11.7 11.7 0 004.9 2.8 18.5 18.5 0 004.7.8h.3c2.4-.7 5.1-1.4 7.2-3a14.4 14.4 0 004.7-8.6 13 13 0 00.2-5.5 9.2 9.2 0 00-1.9-4.3zm-3.6 3a23.6 23.6 0 00-3.4 3l-2 2.1 5.2 6.2a1.4 1.4 0 01-.2 2 1.6 1.6 0 01-.9.3 1.3 1.3 0 01-1.1-.5l-5-6-5.2 5.4a1.3 1.3 0 01-1 .4 1.4 1.4 0 01-1-.4 1.5 1.5 0 010-2l5.4-5.5-3.7-4.4A1.4 1.4 0 1112 9.4l3.5 4.1 1.8-1.9a25.7 25.7 0 013.9-3.4 1.6 1.6 0 012 .4 1.5 1.5 0 01-.5 2z" fill="none"></path>
    <path d="M30.1 11.6a13 13 0 00-2.3-5.1A13.7 13.7 0 0019 1.1 15.3 15.3 0 006.3 5.6a17.5 17.5 0 00-4.6 12.7 14.3 14.3 0 003.1 8.4 12.8 12.8 0 005.7 3.3 24.3 24.3 0 006.4 1 1 1 0 00.9-.6 19.4 19.4 0 006.7-3.1c3.3-2.6 4.7-6.6 5.4-9.5a16.5 16.5 0 00.2-6.2zM28 17.4a14.4 14.4 0 01-4.7 8.5c-2.1 1.6-4.8 2.3-7.2 3h-.3a18.5 18.5 0 01-4.7-.8 11.7 11.7 0 01-4.9-2.8 11 11 0 01-2.6-7.2A15.8 15.8 0 017.7 6.9a13.2 13.2 0 019.3-4h1.7a11.7 11.7 0 017.6 4.6 9.2 9.2 0 011.9 4.3 13 13 0 01-.2 5.6z"></path>
    <path d="M21.2 8.2a25.7 25.7 0 00-3.9 3.4l-1.8 1.9L12 9.4a1.4 1.4 0 10-2.2 1.8l3.7 4.4-5.4 5.5a1.5 1.5 0 000 2 1.4 1.4 0 001 .4 1.3 1.3 0 001-.4l5.2-5.4 5 6a1.3 1.3 0 001.1.5 1.6 1.6 0 00.9-.3 1.4 1.4 0 00.2-2l-5.2-6.2 2-2.1a23.6 23.6 0 013.4-3 1.5 1.5 0 00.5-2 1.6 1.6 0 00-2-.4z"></path>
  </symbol>
  <symbol xmlns="http://www.w3.org/2000/svg" viewBox="0 0 32 32" id="info">
    <path d="M29.2 16.6a25.7 25.7 0 00-6.6 1.3c1.4-.8 3-1.5 4.5-2.2s.9-5.7-2.2-5l-1.6.5 2.7-2c2.3-1.7 1.1-6.1-2.1-4.9l-.9.3.5-.6c1.5-1.9-1-4.5-3.2-3.9-4.7 1.2-8.6 3.8-12.4 6.5S1.4 10.8.1 13.9s1.1 3.4 2.8 3.4h.3c0 .1 0 .1-.1.1a2.4 2.4 0 00.2 3l-.8.7c-2.1 2.1.8 6.1 3.5 4.2l.6-.4a4.1 4.1 0 01-.5.9c-1.3 2.5 1.3 4.8 3.9 3.7l1.9-.9a2.8 2.8 0 004 3.2 25.5 25.5 0 019.4-2.3c3.5-.2 3.6-5.3.3-5.4l5.1-2.4c2.4-1.3 1.3-5.3-1.5-5.1z" fill="#69f"></path>
    <path d="M16.6 2.9h-1.4A12.1 12.1 0 007 8.1a17.4 17.4 0 00-3.2 9.4 10.8 10.8 0 001 5.9 10.2 10.2 0 005 4.5 11.1 11.1 0 005.2 1.2c-.1-.1-.1-.2-.1-.4s.3-.9.9-1A14 14 0 0026.7 21a12.8 12.8 0 00-.2-12.7 12 12 0 00-9.9-5.4zm-3.7 4.4a1.3 1.3 0 011.3-.5 1.5 1.5 0 011.1.8l.4 1a1.4 1.4 0 01-.7 1.8h-.3a1.1 1.1 0 01-.8.3 1.4 1.4 0 01-1.2-.7 2.6 2.6 0 01.2-2.7zm6.6 15.8a4.3 4.3 0 01-2.6.9 3.5 3.5 0 01-2.7-1.1 5.2 5.2 0 01-1.3-4.4c0-.3.1-.6.1-.9a5.4 5.4 0 000-2.2 1.4 1.4 0 011-1.7 1.3 1.3 0 011.7 1 9.2 9.2 0 01.1 3.3c0 .2-.1.5-.1.7a3.4 3.4 0 00.4 2.3 1.4 1.4 0 001.5 0 1.3 1.3 0 011.9.1 1.4 1.4 0 010 2z" fill="none"></path>
    <path d="M28.1 7.3a13.8 13.8 0 00-13.2-6.2A14.7 14.7 0 005.5 7a18.4 18.4 0 00-3.6 10.4 13.4 13.4 0 001.2 6.9 13.1 13.1 0 005.8 5.3c2.4 1.2 4.4 1.4 7.6 1.4a.9.9 0 00.9-.9 1.4 1.4 0 00-.2-.7 15.4 15.4 0 0011.1-7.5 14.9 14.9 0 00-.2-14.6zM26.7 21a14 14 0 01-10.9 6.7c-.6.1-1 .5-.9 1s0 .3.1.4a11.1 11.1 0 01-5.2-1.2 10.2 10.2 0 01-5-4.5 10.8 10.8 0 01-1-5.9A17.4 17.4 0 017 8.1 12.1 12.1 0 0115.2 3h1.4a12 12 0 019.9 5.4 12.8 12.8 0 01.2 12.6z"></path>
    <path d="M17.6 21a1.4 1.4 0 01-1.5 0 3.4 3.4 0 01-.4-2.3c0-.2.1-.5.1-.7a9.2 9.2 0 00-.1-3.3 1.3 1.3 0 00-1.7-1 1.4 1.4 0 00-1 1.7 5.4 5.4 0 010 2.2c0 .3-.1.6-.1.9a5.2 5.2 0 001.3 4.4 3.5 3.5 0 002.7 1.1 4.3 4.3 0 002.6-.9 1.4 1.4 0 000-2 1.3 1.3 0 00-1.9-.1zm-3.7-10.1a1.1 1.1 0 00.8-.3h.3a1.4 1.4 0 00.7-1.8l-.4-1a1.5 1.5 0 00-1.1-.8 1.3 1.3 0 00-1.3.5 2.6 2.6 0 00-.2 2.9 1.4 1.4 0 001.2.5z"></path>
  </symbol>
  <symbol xmlns="http://www.w3.org/2000/svg" viewBox="0 0 32 32" id="log">
    <title>Log</title>
    <path d="M5.3 7.9a.6.6 0 00-.7-.1 1.3 1.3 0 00-.7.5 1.5 1.5 0 000 1.3 7 7 0 00.6.9h.7a.5.5 0 000-.7c0-.1-.1-.2-.2-.3h.3a.8.8 0 00.5-.8.9.9 0 00-.5-.8zm-.3 8v-.6a.4.4 0 00-.2-.5.9.9 0 00-.9-.1 1 1 0 00-.7.7 1.2 1.2 0 00.2 1 .9.9 0 00.8.4h.1a.5.5 0 00.5-.5.1.1 0 00-.1-.1q.3-.1.3-.3zM4.8 22a1.4 1.4 0 00-.9 0 1.3 1.3 0 00-.6.7 1.4 1.4 0 000 .9 1.2 1.2 0 00.6.6h.2a.5.5 0 00.5-.3h.1a.6.6 0 00.5-.5v-.8a.5.5 0 00-.4-.6zM9.7 9.7A111.9 111.9 0 0128 9.2a.6.6 0 00.6-.5.5.5 0 00-.5-.5 114.1 114.1 0 00-18.5.5c-.3.1-.5.3-.4.6a.4.4 0 00.4.4zm18.7 5.4l-19.3.7a.5.5 0 00-.5.5.5.5 0 00.5.5l19.3-.7a.6.6 0 00.5-.6c0-.2-.3-.4-.5-.4zm0 7.4H13.8a12.3 12.3 0 00-5.3.8.6.6 0 00-.2.7.9.9 0 00.5.3H9a11 11 0 014.8-.7h14.6a.5.5 0 000-1z"></path>
  </symbol>
  <symbol xmlns="http://www.w3.org/2000/svg" viewBox="0 0 32 32" id="login">
    <title>Log in</title>
    <path d="M4.5,9.4a59.4,59.4,0,0,1,.3,7.3V28.6a.5.5,0,0,0,.5.5h0a.5.5,0,0,0,.5-.5V16.7a60.2,60.2,0,0,0-.3-7.4V9a4.8,4.8,0,0,1,.1-2.4A2.8,2.8,0,0,1,7.4,5a13.7,13.7,0,0,1,2.9-.2l8.2.2a2.6,2.6,0,0,1,1.4.3,2.3,2.3,0,0,1,.7,1.8,25.3,25.3,0,0,1,0,5.5c-.1.3.1.5.4.5s.5-.1.6-.4a27.2,27.2,0,0,0,0-5.7,3.4,3.4,0,0,0-1.1-2.5,3.7,3.7,0,0,0-2-.5l-8.2-.2a11.6,11.6,0,0,0-3.2.3A3.7,3.7,0,0,0,4.5,6.2a6.1,6.1,0,0,0-.1,3Z"></path>
	<path d="M21.3,28.8h0a.5.5,0,0,0,.5-.5V20.5a.5.5,0,0,0-.5-.5h0a.5.5,0,0,0-.5.5v7.8A.5.5,0,0,0,21.3,28.8Z"></path>
	<path d="M13.6,15.7c4.4-.1,9,0,13.4.1a.8.8,0,0,1,.7.8.7.7,0,0,1-.7.7H13.8a35.1,35.1,0,0,0,4,3.7.9.9,0,0,1,.1,1.1l-.6.2h-.5A50.2,50.2,0,0,1,11.6,17l-.2-.2a.8.8,0,0,1,.1-.8l4.7-6.1a.9.9,0,0,1,1.1-.1.9.9,0,0,1,.1,1.1C16.1,12.4,14.8,14.1,13.6,15.7Z"></path>
  </symbol>
  <symbol xmlns="http://www.w3.org/2000/svg" viewBox="0 0 32 32" id="logout">
    <title>Log out</title>
    <path d="M3.2 9.4a44.7 44.7 0 01.4 7.3v11.9c-.1.2.2.5.4.5s.4-.3.5-.5V16.7a45.3 45.3 0 00-.4-7.4V9a4.9 4.9 0 010-2.4A3 3 0 016.2 5 13.2 13.2 0 019 4.8l8.3.2a2.6 2.6 0 011.4.3 2.7 2.7 0 01.7 1.8 20.3 20.3 0 01-.1 5.5.6.6 0 00.5.6.5.5 0 00.5-.5 21.8 21.8 0 00.1-5.7 3.4 3.4 0 00-1.1-2.5 3.7 3.7 0 00-2-.5L9 3.8a10.9 10.9 0 00-3.1.3 3.6 3.6 0 00-2.6 2.1 6.1 6.1 0 00-.1 3zM20 28.8a.5.5 0 00.5-.5v-7.8a.6.6 0 00-.5-.5.5.5 0 00-.5.5v7.8a.5.5 0 00.5.5z"></path>
    <path d="M28.4 15.7c-4.4-.1-8.9 0-13.4.1a.8.8 0 00-.7.8.7.7 0 00.7.7h13.2a35.1 35.1 0 01-4 3.7.9.9 0 00-.1 1.1l.6.2h.5a50.2 50.2 0 005.2-5.3c.1 0 .1-.1.2-.2a.8.8 0 00-.1-.8l-4.7-6.1a.9.9 0 00-1.1-.1.9.9 0 00-.1 1.1c1.3 1.5 2.6 3.2 3.8 4.8z"></path>
  </symbol>
  <symbol xmlns="http://www.w3.org/2000/svg" viewBox="0 0 32 32" id="menu">
    <title>Menu</title>
    <path d="M9.4,9.8a11.2,11.2,0,0,1-3.6-.5c-.2,0-.4-.3-.3-.6s.4-.4.6-.3a19.4,19.4,0,0,0,6.4.2h7.3l2.6-.2a19.3,19.3,0,0,1,3.4-.1c.2,0,.4.3.4.6s-.3.4-.5.4a18.7,18.7,0,0,0-3.3.1l-2.6.2H12.5Z"></path>
	<path d="M7.3,16.7H6.1a.5.5,0,0,1-.5-.5.5.5,0,0,1,.5-.5,75.8,75.8,0,0,0,8.3-.3c2.4-.2,4.8-.4,7.2-.4H26a.5.5,0,0,1,0,1H21.6c-2.4,0-4.8.2-7.1.4S9.7,16.7,7.3,16.7Z"></path>
	<path d="M14.6,23.8l-4-.2A23.6,23.6,0,0,0,6,23.4c-.3-.1-.5-.3-.5-.5a.5.5,0,0,1,.5-.5,25,25,0,0,1,4.7.2,43.5,43.5,0,0,0,5.1.2h1l4.2-.2,2.6-.2,1.8-.2c.3-.1.5.1.5.4a.7.7,0,0,1-.4.6l-1.8.2-2.7.2-4.2.2H14.6Z"></path>
  </symbol>
  <symbol xmlns="http://www.w3.org/2000/svg" viewBox="0 0 32 32" id="next">
    <title>Next video</title>
    <path d="M18.9 18c.7-.8.7-1 .7-1l-.8-.8L8.8 8a23.3 23.3 0 00-3.7-2.7 108.8 108.8 0 001 22.1A42.4 42.4 0 0018.9 18z" fill="none"></path>
    <path d="M2.5 30.5a1.5 1.5 0 001.4 1h.5A43.7 43.7 0 0021.1 20c.5-.6 1.7-1.9 1.4-3.5a4.4 4.4 0 00-1.8-2.6l-10-8.2a22 22 0 00-6.4-4.1 1.5 1.5 0 00-1.3.1 1.5 1.5 0 00-.7 1.2 123.8 123.8 0 00.9 25.8 1.4 1.4 0 00-.7 1.8zM5.1 5.3A23.3 23.3 0 018.8 8l10 8.2.8.8s0 .2-.7 1a42.4 42.4 0 01-12.8 9.4 108.8 108.8 0 01-1-22.1zm23 25.2a1.5 1.5 0 001.5-1.5L30 2A1.5 1.5 0 0028.6.5 1.6 1.6 0 0027 2l-.4 27a1.5 1.5 0 001.5 1.5z"></path>
  </symbol>
  <symbol xmlns="http://www.w3.org/2000/svg" viewBox="0 0 32 32" id="original">
    <title>View original</title>
    <path d="M26.3,12.6c1.2-2.5-2-4.9-4.3-3.6a8,8,0,0,0-1.6.8c0-2-2.6-4-4.5-2.6L14,8.7C13.4,7,11.6,5.6,9.7,6.9L2.9,11.7A3.2,3.2,0,0,0,4,17.3l-.6,1.2c-1.4,2.8,2.1,6,4.5,3.7.2,2.3,3,4.3,4.9,2l.4-.4a3.2,3.2,0,0,0,4.2,1.3l3.2-2a2.9,2.9,0,0,0,4.1,1.4L27.6,23a2.7,2.7,0,0,0,1.2-3.7,19.6,19.6,0,0,0,1.3-2.5C31.2,14.3,28.9,11.2,26.3,12.6Zm-7.8,5A40.5,40.5,0,0,1,15,19.7a.7.7,0,0,1-.6.1.8.8,0,0,1-1.1-.8V15.7a9.3,9.3,0,0,1,.1-2.9,1.3,1.3,0,0,1,.9-.7c.9-.1,2.2,1,2.9,1.5a6.3,6.3,0,0,1,2.2,2.1C19.8,16.6,19.2,17.2,18.5,17.6Z" fill="#fe0000"></path>
  </symbol>
  <symbol xmlns="http://www.w3.org/2000/svg" viewBox="0 0 119 75" id="play-bg">
    <path d="M109.7 46.2l-1.4.4c3.2-5.6 7.2-11.4 4.3-17.8-1-2.2-4-3.7-6.3-3.6a17.7 17.7 0 00-6.9 1.6 35.1 35.1 0 006.2-8.8c1.9-4.1.5-9.5-4.4-10.8a9.7 9.7 0 00-5.1.2c-1-4.5-6.6-6.6-11-4.7-2.9 1.2-5.4 3.7-7.9 5.7l-1.8 1.4c2.1-5.9-4.8-12.4-10.7-8.7-1.9 1.1-3.3 2.8-5.1 4.2s-5.3 3.8-8 5.7h-.1c-2-3-6.5-4-10-2.3l-8.7 4.1c-.4-2.9-2.7-5.7-5.3-6.1-7.8-1.2-12.6 6-20.4 6-9.5-.1-9.5 14.5 0 14.6h.6a24.5 24.5 0 00-4.3 6.5c-2.2 5.6 4.1 10.1 9.1 8.9a16.1 16.1 0 00-3.2 4.8 8 8 0 001.1 8.5l-4.6 6C1.5 67.7 8.6 73.8 14 72.8c2.5-.4 4.8-2.3 6.9-3.5l9.2-4.9c-3.7 5.7 3.8 13 10.3 9.8s10.2-8.5 15.1-12.8c.1 5.2 7.4 9.8 12.8 5.4s13.5-10.1 20.2-15c-1.9 2.9-3.9 5.7-5.6 8.7-3.1 5.1 2.1 13.1 8.2 10.8 4.1-1.6 8.2-3 12-5.2s6.7-4.7 10.5-5.8c9-2.6 5.2-16.7-3.9-14.1z"></path>
  </symbol>
  <symbol xmlns="http://www.w3.org/2000/svg" viewBox="0 0 119 75" id="play-fg">
    <title>Play video</title>
    <path d="M115.2 67.5c-3-21.5-10.7-42.6-11-64.4a1.7 1.7 0 00-3.4 0 4.1 4.1 0 01.1 1.1c-15.1.2-30.6-2.6-45.6-.8S23.9 5.8 8.4 6.2c-2.9.1-4.7-.1-5.5 2.8s.2 6.3.4 8.7.4 6 .7 9C5.4 40.4 7 54 7 67.9a1.7 1.7 0 003.4 0 309.3 309.3 0 00-2.3-36c-.7-6-1.4-12.1-1.7-18.2 0-.7-.5-3.5 0-4.1s.2.2 1.2 0c2.7-.8 6.5-.2 9.4-.4 6.9-.5 13.9-1.1 20.8-1S50.9 7 57.6 6.5c14.4-1 29 1.3 43.4 1.1 1 18.3 6.6 36.1 9.8 54.1h-.1c-8.5 0-16.9-.1-25.3.8s-17 1.6-25.4 2.7C42.5 67.4 25.2 70 7.6 69.9a1.7 1.7 0 000 3.4c17.6 0 34.9-2.5 52.4-4.7 8.4-1.1 16.9-1.8 25.4-2.7s16.8-.8 25.3-.8h.7c.2 1.1.3 2.2.5 3.4s3.6 1.1 3.3-1z"></path>
    <path d="M79.2 35.7c-1.2-1.4-3.3-2.2-4.9-3.2-3.3-2-6.3-4.4-9.5-6.6s-7-4.5-10.3-6.9-5.5-4.7-8.5-6.5a1.7 1.7 0 00-2.6 1.4c0 3 1.4 5.7 1.5 8.7s.2 6.4.2 9.6c.2 6.8 1 13.6 1.3 20.4a1.3 1.3 0 00-1.1 1.5c.3 2.6-1.3 9.5 1.7 11a2 2 0 001.7 0c5.5-4.1 11.7-7.6 16.7-12.3 3-2.8 5.2-6.4 8.1-9.2s5.1-3.5 6.1-6.2a1.6 1.6 0 00-.4-1.7zm-7.4 4.8a78.7 78.7 0 00-7.2 8.1c-2.3 2.7-5.4 4.8-8.2 6.9s-5.3 2.9-7.4 4.7a19.7 19.7 0 00-.2-5.4 1.6 1.6 0 001-1.5c-.2-7.1-1.2-14-1.3-21.1-.1-3.2-.2-6.4-.2-9.6a27.5 27.5 0 00-.9-5c2.1 1.6 4.1 3.4 6.2 4.9s6.9 4.6 10.3 6.9 6.7 4.9 10.3 7c.5.3 1.2 1 1.5 1a27.4 27.4 0 01-3.9 3.1z"></path>
  </symbol>
  <symbol xmlns="http://www.w3.org/2000/svg" viewBox="0 0 119 75" id="play-hover">
    <path d="M68.4 39.1h-.2l1.4-2.1c1.7-3.3-1-7.7-4.8-7-.4-2.5-3.4-4.3-6-4l-2.9.8a6.4 6.4 0 00.2-.7c1.1-2.5 3.4-5 3.3-7.8s-3-5.7-6-4.5a32.5 32.5 0 00-11 6.9c-3 3-.5 7.3 2.8 7.9-.9 2.5-1.8 5.3-1.1 7.7a5 5 0 003.9 3.5 4.1 4.1 0 01-.5.9 5.3 5.3 0 00.1 4.6l-2.7 2.5c-2.7 2.6-.9 8 3 8a3.6 3.6 0 002.9 2.2c3 .5 6.2.4 9.3.6s5.4-4.2 3.8-7a85.9 85.9 0 018.1-3.9c5.1-2.3 1.2-9.5-3.6-8.6z" fill="#de0000"></path>
  </symbol>
  <symbol xmlns="http://www.w3.org/2000/svg" viewBox="0 0 32 32" id="previous">
    <title>Previous video</title>
    <path d="M25.7 26.6l.2-20a34.7 34.7 0 00-12.8 10.6z" fill="none"></path>
    <path d="M4.5.5a1.5 1.5 0 00-1.4 1.6l1.7 28a1.5 1.5 0 001.5 1.4h.1a1.6 1.6 0 001.4-1.6l-1.7-28A1.6 1.6 0 004.5.5zM9.6 17a1.5 1.5 0 00.4 2.1l.8.2 15.5 11.4a1.4 1.4 0 00.9.3l.6-.2a1.4 1.4 0 00.9-1.3l.2-25.1a1.6 1.6 0 00-.6-1.3 1.4 1.4 0 00-1.4-.1A36.6 36.6 0 009.6 17zM25.9 6.6l-.2 20-12.6-9.4A34.7 34.7 0 0125.9 6.6z"></path>
  </symbol>
  <symbol xmlns="http://www.w3.org/2000/svg" viewBox="0 0 32 32" id="loading">
    <title>Loading</title>
    <path d="M19.1,5.4a3.2,3.2,0,0,1,1.9.5l1.7.9a10.7,10.7,0,0,1,2.8,2.8,9.2,9.2,0,0,1,1.7,3.6,10.3,10.3,0,0,1,.2,3.9A13.3,13.3,0,0,1,24,24a10.3,10.3,0,0,1-1.5,1.4,6.1,6.1,0,0,1-1.8.9,12.2,12.2,0,0,1-3.8.7,16.2,16.2,0,0,1-3.8-.2,9,9,0,0,1-3.6-1.6,17.4,17.4,0,0,1-2.9-2.5,7.8,7.8,0,0,1-1.9-3.6,10.2,10.2,0,0,1,0-3.9,12.7,12.7,0,0,1,1-3.7l.8-1.7,1-1.6L8.6,6.7a4.1,4.1,0,0,1,1.9-1.2.7.7,0,1,1,.4,1.4h0a2.1,2.1,0,0,0-1.1.8,7.1,7.1,0,0,0-1,1.4l-.9,1.5c-.3.5-.5,1-.8,1.6a11.6,11.6,0,0,0-.8,3.2,9,9,0,0,0,.1,3.3,6.9,6.9,0,0,0,1.5,2.8,13.4,13.4,0,0,0,2.5,2.3,7,7,0,0,0,3,1.2,13,13,0,0,0,3.4.2,9.2,9.2,0,0,0,3.3-.6,6.1,6.1,0,0,0,1.4-.7,5.7,5.7,0,0,0,1.1-1.1,12.6,12.6,0,0,0,3-6A8.8,8.8,0,0,0,24,10.7a7.6,7.6,0,0,0-2.4-2.3l-1.4-.8a5.1,5.1,0,0,1-1.5-.7h0a.7.7,0,0,1,0-1.1C18.8,5.5,18.9,5.4,19.1,5.4Z"></path>
  </symbol>
  <symbol xmlns="http://www.w3.org/2000/svg" viewBox="0 0 32 32" id="search">
    <title>Search</title>
    <path d="M25.9,26.8c-1.5-2.5-3.1-4.9-4.7-7.3,2.4-1.5,4.1-3.9,3.7-7a13.9,13.9,0,0,0-3.2-7.1c-1.7-1.8-4-2.2-6.3-2.5a1.2,1.2,0,0,0-1.2.5h-.4C8.7,3.2,5.6,9.1,6,13.6s6,8,10.8,7.4l1.6-.3c1.7,2.5,3.3,5,4.9,7.6S26.8,28.5,25.9,26.8ZM9.5,15.2c-1.6-2.8.5-9,4.3-8.9a1.1,1.1,0,0,0,1.1-.5h.5c3.2.4,4.6,1.8,5.8,4.7s0,6.4-3.8,7.3S11,17.9,9.5,15.2Z"></path>
  </symbol>
</svg>